<svg xmlns="http://www.w3.org/2000/svg" width="1200" height="1200" viewBox="0 0 1200 1200" version="1.1"><path d="" stroke="none" fill="#080404" fill-rule="evenodd"/><path d="M 515.500 444.208 C 510.977 446.802, 511.065 445.548, 511.032 507.750 L 511 567 501.500 567 L 492 567 492 575.532 C 492 587.773, 494.572 593.208, 502.210 597.106 C 505.774 598.925, 509.626 598.999, 599.710 598.978 C 688.577 598.957, 693.710 598.860, 697.500 597.119 C 705.297 593.539, 708 587.982, 708 575.532 L 708 567 698.500 567 L 689 567 688.968 507.750 C 688.935 445.198, 689.043 446.681, 684.316 444.163 C 681.215 442.512, 518.382 442.555, 515.500 444.208 M 526 503.500 L 526 546 600 546 L 674 546 674 503.500 L 674 461 600 461 L 526 461 526 503.500 M 610.630 466.856 C 609.707 467.877, 602.404 484.138, 594.401 502.993 C 579.071 539.114, 578.575 540.938, 583.487 543.176 C 588.452 545.438, 589.661 543.398, 605.308 506.366 C 613.410 487.190, 620.030 470.938, 620.020 470.250 C 619.990 468.356, 616.241 465, 614.155 465 C 613.140 465, 611.554 465.835, 610.630 466.856 M 561.616 489.570 C 549.130 501.103, 547.412 503.304, 548.561 506.298 C 549.496 508.734, 574.220 531, 575.990 531 C 578.770 531, 582 527.990, 582 525.398 C 582 523.585, 579.809 520.830, 573.927 515.248 C 569.486 511.034, 564.960 506.960, 563.867 506.194 C 561.983 504.875, 562.398 504.315, 571.940 495.313 C 582.479 485.371, 583.771 482.913, 580.171 479.655 C 576.699 476.513, 574.449 477.716, 561.616 489.570 M 619.655 479.829 C 616.480 483.337, 617.651 485.494, 628.060 495.313 C 637.602 504.315, 638.017 504.875, 636.133 506.194 C 635.040 506.960, 630.514 511.034, 626.073 515.248 C 620.365 520.666, 618 523.610, 618 525.300 C 618 528.115, 620.843 531, 623.616 531 C 625.817 531, 650.615 508.788, 651.489 506.034 C 652.451 503.004, 651.119 501.333, 638.330 489.520 C 625.380 477.557, 622.883 476.262, 619.655 479.829 M 578 575.500 L 578 583 600 583 L 622 583 622 575.500 L 622 568 600 568 L 578 568 578 575.500 M 739 617 L 739 627 882 627 L 1025 627 1025 617 L 1025 607 882 607 L 739 607 739 617 M 175 619.500 L 175 629 318 629 L 461 629 461 619.500 L 461 610 318 610 L 175 610 175 619.500 M 309.500 672.963 C 305.892 674.472, 301.152 680.381, 298.039 687.250 C 296.357 690.962, 294.346 694, 293.572 694 C 292.797 694, 291.551 694.235, 290.803 694.522 C 290.055 694.809, 288.556 694.359, 287.471 693.522 C 285.549 692.038, 285.546 691.964, 287.375 690.548 C 289.800 688.671, 288.782 685.745, 285.855 686.180 C 282.617 686.661, 279.597 691.259, 280.405 694.479 C 281.212 697.693, 286.998 700.450, 291.181 699.614 C 292.731 699.304, 294 699.151, 294 699.275 C 294 699.399, 293.325 703.027, 292.500 707.338 C 291.460 712.773, 291 721.687, 291 736.411 L 291 757.645 286.575 759.856 C 276.982 764.646, 273.771 771.832, 278.071 778.885 C 280.132 782.265, 280.146 782.270, 286.093 781.648 C 292.784 780.949, 296.391 779.378, 299.881 775.641 L 302.261 773.093 305.881 774.899 C 316.938 780.419, 324.413 782.500, 333.185 782.500 C 340.931 782.500, 342.473 782.175, 347.441 779.500 C 352.810 776.608, 354.817 774.130, 353.506 772.009 C 353.163 771.454, 349.250 771, 344.811 771 C 335.327 771, 324.061 768.207, 315.018 763.613 L 308.889 760.500 308.484 741.500 C 308.261 731.050, 307.591 718.675, 306.995 714 C 304.518 694.566, 304.475 695.697, 307.766 693.776 C 309.391 692.828, 312.358 690.239, 314.360 688.023 C 319.057 682.824, 319.456 677.290, 315.365 674.073 C 312.458 671.786, 312.360 671.767, 309.500 672.963 M 524.385 680.107 C 517.081 683.624, 507.316 685.786, 493.097 687.035 C 480.253 688.164, 477.827 689.673, 482.433 693.672 C 485.002 695.903, 485.933 696.134, 489.933 695.533 C 492.445 695.155, 496.245 694.603, 498.377 694.306 L 502.253 693.766 501.498 708.633 C 501.083 716.810, 500.752 733.535, 500.762 745.801 C 500.780 765.687, 500.973 768.313, 502.546 770.051 C 504.659 772.385, 508.460 772.542, 513.358 770.495 C 520.173 767.647, 520.387 766.644, 519.061 743.747 C 518.417 732.611, 517.126 716.300, 516.195 707.500 L 514.500 691.500 524.500 686.500 C 532.230 682.635, 534.573 680.989, 534.820 679.250 C 535.264 676.124, 532.122 676.382, 524.385 680.107 M 308.725 679.752 C 307.074 681.575, 305 686.310, 305 688.252 C 305 690.153, 310.841 683.894, 311.899 680.860 C 313.074 677.490, 311.324 676.879, 308.725 679.752 M 626.161 684.172 C 619.636 685.405, 613.988 690.651, 611.582 697.715 C 608.313 707.308, 610.379 711.911, 618.652 713.462 C 623.489 714.370, 626.622 712.034, 629.010 705.736 C 630.004 703.116, 632.208 699.388, 633.909 697.451 C 635.609 695.515, 637 693.496, 637 692.965 C 637 691.455, 640.618 691.834, 641.991 693.489 C 644.580 696.608, 639.609 714.711, 631.858 730.389 L 625.561 743.127 621.010 742.501 C 612.917 741.388, 607 745.395, 607 751.988 C 607 755.257, 607.556 756.322, 610.389 758.483 C 613.975 761.218, 621.816 762.765, 626.339 761.630 C 627.718 761.284, 630.266 759.806, 632.002 758.345 L 635.157 755.690 642.329 759.360 C 653.318 764.984, 663.553 764.068, 663.456 757.468 C 663.418 754.838, 662.963 754.400, 659.456 753.619 C 652.972 752.175, 643.810 748.588, 643.296 747.291 C 643.033 746.627, 644.920 742.949, 647.489 739.120 C 652.827 731.165, 655.544 723.399, 656.545 713.241 C 657.514 703.404, 655.876 697.276, 650.704 691.401 C 644.508 684.362, 636.947 682.135, 626.161 684.172 M 533.930 685.478 C 529.806 687.720, 526.030 699.342, 525.985 709.934 C 525.974 712.389, 525.694 713.065, 525.086 712.104 C 523.905 710.239, 521 711.454, 521 713.814 C 521 714.846, 521.849 716.458, 522.886 717.397 C 524.583 718.933, 524.818 721.123, 525.231 739.302 C 525.484 750.411, 526.035 760.291, 526.456 761.259 C 528.036 764.892, 535.299 764.701, 539.074 760.926 C 540.905 759.095, 541.032 758.114, 540.420 750.571 C 539.800 742.923, 539.959 741.769, 542.357 736.531 C 546.495 727.494, 547.621 729.135, 549.883 747.495 C 550.711 754.213, 551.286 755.849, 553.490 757.745 C 559.156 762.618, 565.862 758.898, 571.746 747.618 C 572.598 745.984, 572.815 746.203, 573.390 749.266 C 574.697 756.232, 580.634 761, 588 761 C 594.375 761, 599.587 757.423, 604.298 749.816 C 606.860 745.677, 615 726.937, 615 725.175 C 615 722.133, 607.917 730.389, 603.873 738.145 C 599.509 746.514, 592.870 754.455, 590.809 753.773 C 590.089 753.535, 588.857 752.200, 588.071 750.806 C 586.731 748.429, 586.862 748.002, 590.189 743.886 C 594.586 738.449, 597.442 730.168, 596.553 725.433 C 595.313 718.823, 587.904 716.802, 581.205 721.248 C 578.465 723.066, 576.206 726.401, 571.563 735.482 C 568.228 742.004, 564.938 747.526, 564.250 747.753 C 563.322 748.060, 562.999 746.152, 562.994 740.333 C 562.985 727.277, 560.031 721, 553.895 721 C 550.145 721, 547.438 722.352, 543.250 726.316 L 540 729.392 540 723.255 C 540 719.861, 540.493 716.813, 541.103 716.436 C 541.709 716.062, 543.280 713.448, 544.593 710.627 C 548.752 701.695, 547.508 686.560, 542.455 684.621 C 539.901 683.641, 536.719 683.961, 533.930 685.478 M 750.930 685.478 C 746.834 687.705, 743.165 698.909, 742.921 709.934 C 742.878 711.895, 742.615 712.938, 742.338 712.250 C 741.684 710.630, 739.078 710.634, 738.455 712.256 C 738.137 713.085, 736.447 713.391, 733.487 713.155 C 729.063 712.804, 729 712.747, 728.967 709.149 C 728.911 703.005, 722.986 698.157, 719.632 701.511 C 718.764 702.379, 717.546 704.982, 716.926 707.295 C 714.950 714.668, 714.165 715.998, 711.771 716.032 C 710.522 716.049, 708.636 716.717, 707.580 717.516 C 705.826 718.843, 705.504 718.714, 703.874 716.033 C 700.846 711.054, 697.048 709.757, 688.435 710.760 L 680.979 711.627 681.530 708.564 C 681.833 706.879, 681.671 703.362, 681.170 700.750 L 680.258 696 683.379 695.965 C 689.515 695.897, 702.230 693.102, 704.098 691.411 C 705.144 690.465, 706 688.582, 706 687.228 C 706 685.170, 705.632 684.862, 703.750 685.349 C 687.860 689.458, 677.527 690.107, 671.989 687.345 C 668.795 685.751, 668.606 685.769, 666.949 687.815 C 665.600 689.480, 665.072 692.948, 664.508 703.838 C 663.715 719.155, 664.131 720.982, 668.980 723.490 C 674.073 726.123, 676.809 725.444, 681.445 720.395 C 686.837 714.522, 688.881 714.753, 691.263 721.504 C 695.137 732.481, 691.694 752.360, 685.424 755.217 C 681.983 756.784, 676.082 755.236, 672.733 751.886 C 669.628 748.781, 669.671 749.286, 671.722 740.250 C 672.472 736.950, 668.717 737.276, 665.974 740.750 C 664.242 742.944, 663.893 744.448, 664.249 748.193 C 664.801 753.996, 666.834 757.202, 672.214 760.752 C 675.992 763.245, 677.190 763.493, 685.123 763.419 C 697.380 763.306, 702.344 760.778, 706.464 752.551 C 709.077 747.333, 709.423 745.616, 709.381 738.066 C 709.355 733.355, 708.857 727.856, 708.274 725.847 C 707.216 722.199, 707.219 722.193, 710.541 721.805 C 713.783 721.427, 713.849 721.493, 713.183 724.459 C 712.807 726.131, 712.500 732.900, 712.500 739.500 C 712.500 749.522, 712.830 752.149, 714.500 755.435 C 717.592 761.521, 720.663 763.311, 725.965 762.119 C 731.380 760.902, 735.081 757.285, 738.812 749.560 L 741.681 743.620 742.362 751.783 C 742.736 756.273, 743.307 760.638, 743.631 761.482 C 744.948 764.914, 752.420 764.580, 756.074 760.926 C 757.905 759.095, 758.032 758.114, 757.420 750.571 C 756.800 742.923, 756.959 741.769, 759.357 736.531 C 763.495 727.494, 764.621 729.135, 766.883 747.495 C 767.711 754.213, 768.286 755.849, 770.490 757.745 C 777.138 763.463, 783.730 758.496, 791.388 742 L 794.870 734.500 794.935 747.643 C 794.988 758.445, 794.733 760.889, 793.500 761.362 C 792.675 761.678, 792 762.794, 792 763.841 C 792 766.154, 797.734 767.354, 804.250 766.404 C 823.769 763.557, 834.730 753.107, 840.062 732.259 C 842.874 721.264, 842.624 714.317, 839.145 706.728 C 835.738 699.298, 832.748 695.932, 826.902 692.950 C 815.036 686.896, 791.302 686.444, 790.189 692.250 C 789.997 693.252, 790.460 694, 791.273 694 C 792.385 694, 792.834 696.630, 793.346 706.157 C 794.391 725.579, 794.257 727.860, 791.895 730.842 C 790.737 732.304, 788.022 736.763, 785.861 740.750 C 783.700 744.737, 781.497 748, 780.966 748 C 780.428 748, 779.998 744.565, 779.994 740.250 C 779.985 727.279, 777.017 721, 770.895 721 C 767.145 721, 764.438 722.352, 760.250 726.316 L 757 729.392 757 723.255 C 757 719.861, 757.493 716.813, 758.103 716.436 C 758.709 716.062, 760.280 713.448, 761.593 710.627 C 765.752 701.695, 764.508 686.560, 759.455 684.621 C 756.901 683.641, 753.719 683.961, 750.930 685.478 M 539.660 692.136 C 539.312 693.436, 539.035 698.100, 539.044 702.500 C 539.057 708.873, 539.288 710.109, 540.176 708.578 C 541.694 705.964, 542.482 693.684, 541.271 691.520 C 540.392 689.948, 540.229 690.011, 539.660 692.136 M 756.660 692.136 C 756.312 693.436, 756.035 698.100, 756.044 702.500 C 756.057 708.873, 756.288 710.109, 757.176 708.578 C 758.694 705.964, 759.482 693.684, 758.271 691.520 C 757.392 689.948, 757.229 690.011, 756.660 692.136 M 810.118 710.750 C 810.183 718.862, 810.521 731.496, 810.868 738.824 L 811.500 752.148 816.205 747.634 C 822.600 741.498, 824.296 735.582, 824.413 719 C 824.493 707.540, 824.305 706.186, 822.153 702.726 C 819.698 698.776, 815.528 696, 812.050 696 C 810.071 696, 810.004 696.509, 810.118 710.750 M 446.467 716.424 C 444.296 721.621, 441.897 736.919, 442.624 740.938 C 444.037 748.757, 447.964 753, 453.788 753 C 458.302 753, 460.499 751.663, 464.146 746.698 L 467.230 742.500 466.524 749.361 C 465.950 754.928, 465.206 757.023, 462.580 760.463 C 454.875 770.558, 455.883 783.007, 464.405 782.996 C 471.515 782.988, 477.339 776.322, 479.132 766.139 C 479.918 761.676, 480.548 760.273, 481.586 760.672 C 483.816 761.527, 484.604 757.915, 482.520 756.391 C 480.867 755.182, 480.776 753.892, 481.428 741.029 L 482.141 726.987 479.083 723.929 C 476.697 721.543, 475.310 720.940, 472.770 721.186 C 469.729 721.479, 469.471 721.801, 468.866 726.068 C 468.156 731.071, 464.508 738.805, 460.643 743.500 L 458.174 746.500 457.440 743.596 C 457.015 741.913, 457.405 736.655, 458.369 731.096 C 459.284 725.818, 460.025 720.566, 460.016 719.424 C 459.991 716.128, 455.909 713, 451.635 713 C 448.325 713, 447.734 713.391, 446.467 716.424 M 732.905 717.583 L 728.309 719.834 727.661 728.167 C 726.721 740.238, 726.854 753.792, 727.919 754.450 C 729.505 755.430, 731.942 752.080, 737.054 741.893 C 741.426 733.179, 742 731.301, 742 725.692 C 742 720.375, 741.636 719.024, 739.750 717.341 L 737.500 715.333 732.905 717.583 M 343.184 717.323 C 342.667 717.971, 341.922 719.552, 341.527 720.837 L 340.810 723.173 338.866 721.087 C 337.416 719.530, 335.701 719, 332.111 719 C 316.913 719, 307.473 741.544, 317.821 753.126 C 320.069 755.642, 321.334 756.186, 325.070 756.242 C 330.403 756.323, 334.107 754.209, 337.576 749.103 C 338.909 747.141, 340 746.095, 340 746.779 C 340 747.462, 340.930 750, 342.066 752.417 C 346.781 762.448, 357.199 760.269, 363.328 747.970 L 365.811 742.987 366.485 748.244 C 367.536 756.433, 368.881 760.740, 370.593 761.397 C 373.327 762.447, 380.852 762.049, 381.615 760.814 C 382.018 760.162, 382.682 755.324, 383.091 750.064 C 383.941 739.139, 386.813 730.341, 391.066 725.639 L 393.905 722.500 395.509 724.750 C 398.752 729.299, 402.681 726.523, 400.463 721.250 C 399.247 718.358, 398.659 718, 395.125 718 C 390.095 718, 386.051 721.250, 382.689 727.996 L 380.223 732.944 379.122 728.570 C 377.877 723.626, 373.773 719.548, 368.983 718.496 C 363.989 717.399, 362.904 719.117, 363.634 726.967 C 364.238 733.473, 364.118 733.968, 360.018 741.848 C 354.574 752.313, 353.041 752.453, 352.875 742.500 C 352.806 738.375, 352.694 731.919, 352.625 728.154 C 352.552 724.161, 351.955 720.650, 351.192 719.731 C 349.218 717.353, 344.333 715.884, 343.184 717.323 M 875.627 716.669 C 873.982 717.130, 873.854 717.759, 874.569 721.847 C 876.215 731.258, 875.642 735.064, 871.573 741.748 C 867.539 748.373, 861.581 754.359, 859.656 753.720 C 859.020 753.509, 858.086 752.166, 857.580 750.735 C 856.827 748.604, 857.147 747.496, 859.346 744.613 C 865.477 736.575, 867.957 725.100, 864.345 721.488 C 860.078 717.220, 854.998 717.598, 849.133 722.619 C 843.779 727.201, 841.592 733.766, 842.216 743.379 C 843.035 756.012, 848.329 761.635, 858.602 760.783 C 865.676 760.196, 868.413 758.107, 873.970 749.049 L 878.439 741.764 880.099 748.132 C 882.362 756.816, 882.744 757.562, 885.602 758.865 C 889.004 760.415, 892.142 760.289, 894.694 758.502 C 896.975 756.904, 898.312 753.688, 902.522 739.662 C 907.568 722.855, 908.693 718.122, 907.935 716.896 C 906.812 715.078, 903.674 720.691, 898.783 733.265 C 896.365 739.481, 894.306 743.495, 893.910 742.765 C 893.533 742.069, 892.206 737.059, 890.961 731.630 C 889.590 725.651, 887.871 720.809, 886.599 719.347 C 884.481 716.911, 879.287 715.643, 875.627 716.669 M 404.750 718.579 C 403.520 719.816, 403.880 725.980, 406.098 741.663 C 408.782 760.655, 409.129 761.411, 415.336 761.808 C 417.986 761.977, 420.731 761.638, 421.434 761.054 C 422.188 760.429, 422.990 756.332, 423.387 751.078 C 424.162 740.811, 426.160 733.291, 429.534 727.947 C 432.490 723.263, 433.919 722.726, 436.699 725.254 C 440.851 729.028, 443.818 725.041, 440.443 720.223 C 436.684 714.856, 427.420 719.314, 422.592 728.813 L 420.306 733.313 419.676 729.375 C 418.886 724.435, 413.717 719.152, 408.915 718.376 C 407.037 718.072, 405.163 718.164, 404.750 718.579 M 587.623 725.540 C 587.280 726.433, 587 729.477, 587 732.304 C 587 737.399, 587.015 737.424, 588.676 735.052 C 590.587 732.324, 591.069 724.901, 589.373 724.309 C 588.753 724.093, 587.966 724.646, 587.623 725.540 M 857.468 725.052 C 857.100 725.648, 856.579 728.918, 856.311 732.318 L 855.824 738.500 857.905 735.500 C 859.091 733.791, 859.990 730.911, 859.993 728.809 C 860 725.052, 858.681 723.089, 857.468 725.052 M 330.493 728.832 C 325.972 735.664, 324.393 746.421, 327.529 749.024 C 328.798 750.077, 329.482 749.896, 331.545 747.958 C 338.121 741.780, 340.870 732.115, 337.443 727.223 C 335.213 724.038, 333.385 724.462, 330.493 728.832 M 615.389 748.980 C 613.196 749.866, 611.697 752.364, 612.736 753.402 C 614.273 754.940, 617.814 753.743, 619.842 751 L 622.060 748 619.780 748.063 C 618.526 748.098, 616.550 748.511, 615.389 748.980 M 463.685 766.534 C 461.855 770.373, 461.420 776, 462.955 776 C 463.480 776, 464.185 774.313, 464.522 772.250 C 464.859 770.188, 465.365 767.263, 465.647 765.750 C 466.338 762.039, 465.709 762.290, 463.685 766.534 M 285.297 768.769 C 282.818 769.172, 281.548 772.001, 282.500 775 C 283.684 778.729, 286.855 777.141, 288.885 771.802 C 289.994 768.886, 289.120 768.148, 285.297 768.769" stroke="none" fill="#040404" fill-rule="evenodd"/></svg>